<svg width="274" height="78" viewBox="0 0 274 78" fill="none" xmlns="http://www.w3.org/2000/svg">
<rect x="0.5" y="0.5" width="115" height="76" fill="#D9D9D9" stroke="#1D1C22"/>
<rect x="116" width="158" height="77" fill="#1D1C22"/>
<path d="M131.512 49.252C129.856 49.252 128.392 48.964 127.12 48.388C125.872 47.812 124.888 47.008 124.168 45.976C123.448 44.944 123.064 43.792 123.016 42.52H125.68C125.8 43.744 126.34 44.824 127.3 45.76C128.26 46.672 129.664 47.128 131.512 47.128C133.216 47.128 134.56 46.696 135.544 45.832C136.552 44.944 137.056 43.828 137.056 42.484C137.056 41.404 136.78 40.54 136.228 39.892C135.676 39.22 134.992 38.728 134.176 38.416C133.36 38.08 132.232 37.72 130.792 37.336C129.112 36.88 127.78 36.436 126.796 36.004C125.812 35.572 124.972 34.9 124.276 33.988C123.58 33.076 123.232 31.84 123.232 30.28C123.232 28.984 123.568 27.832 124.24 26.824C124.912 25.792 125.86 24.988 127.084 24.412C128.308 23.836 129.712 23.548 131.296 23.548C133.624 23.548 135.496 24.124 136.912 25.276C138.352 26.404 139.18 27.868 139.396 29.668H136.66C136.492 28.636 135.928 27.724 134.968 26.932C134.008 26.116 132.712 25.708 131.08 25.708C129.568 25.708 128.308 26.116 127.3 26.932C126.292 27.724 125.788 28.816 125.788 30.208C125.788 31.264 126.064 32.116 126.616 32.764C127.168 33.412 127.852 33.904 128.668 34.24C129.508 34.576 130.636 34.936 132.052 35.32C133.684 35.776 135.004 36.232 136.012 36.688C137.02 37.12 137.872 37.792 138.568 38.704C139.264 39.616 139.612 40.84 139.612 42.376C139.612 43.552 139.3 44.668 138.676 45.724C138.052 46.78 137.128 47.632 135.904 48.28C134.68 48.928 133.216 49.252 131.512 49.252ZM162.266 38.164C162.266 39.028 162.242 39.688 162.194 40.144H145.886C145.958 41.632 146.318 42.904 146.966 43.96C147.614 45.016 148.466 45.82 149.522 46.372C150.578 46.9 151.73 47.164 152.978 47.164C154.61 47.164 155.978 46.768 157.082 45.976C158.21 45.184 158.954 44.116 159.314 42.772H161.978C161.498 44.692 160.466 46.264 158.882 47.488C157.322 48.688 155.354 49.288 152.978 49.288C151.13 49.288 149.474 48.88 148.01 48.064C146.546 47.224 145.394 46.048 144.554 44.536C143.738 43 143.33 41.212 143.33 39.172C143.33 37.132 143.738 35.344 144.554 33.808C145.37 32.272 146.51 31.096 147.974 30.28C149.438 29.464 151.106 29.056 152.978 29.056C154.85 29.056 156.482 29.464 157.874 30.28C159.29 31.096 160.37 32.2 161.114 33.592C161.882 34.96 162.266 36.484 162.266 38.164ZM159.71 38.092C159.734 36.628 159.434 35.38 158.81 34.348C158.21 33.316 157.382 32.536 156.326 32.008C155.27 31.48 154.118 31.216 152.87 31.216C150.998 31.216 149.402 31.816 148.082 33.016C146.762 34.216 146.03 35.908 145.886 38.092H159.71ZM169.396 32.836C169.948 31.612 170.788 30.664 171.916 29.992C173.068 29.32 174.472 28.984 176.128 28.984V31.612H175.444C173.62 31.612 172.156 32.104 171.052 33.088C169.948 34.072 169.396 35.716 169.396 38.02V49H166.876V29.344H169.396V32.836ZM186.903 46.552L193.527 29.344H196.191L188.307 49H185.463L177.579 29.344H180.279L186.903 46.552ZM200.867 25.636C200.363 25.636 199.931 25.456 199.571 25.096C199.211 24.736 199.031 24.292 199.031 23.764C199.031 23.236 199.211 22.804 199.571 22.468C199.931 22.108 200.363 21.928 200.867 21.928C201.371 21.928 201.803 22.108 202.163 22.468C202.523 22.804 202.703 23.236 202.703 23.764C202.703 24.292 202.523 24.736 202.163 25.096C201.803 25.456 201.371 25.636 200.867 25.636ZM202.127 29.344V49H199.607V29.344H202.127ZM216.221 47.164C217.877 47.164 219.257 46.768 220.361 45.976C221.489 45.16 222.221 44.032 222.557 42.592H225.257C224.825 44.488 223.889 46.036 222.449 47.236C221.033 48.436 219.233 49.108 217.049 49.252V51.412C218.465 51.364 219.581 51.628 220.397 52.204C221.237 52.804 221.657 53.656 221.657 54.76C221.657 55.84 221.273 56.692 220.505 57.316C219.737 57.964 218.717 58.288 217.445 58.288H213.845V56.596H216.941C217.829 56.596 218.477 56.44 218.885 56.128C219.317 55.84 219.533 55.384 219.533 54.76C219.533 53.608 218.669 53.032 216.941 53.032H215.285V49.252C213.605 49.108 212.117 48.616 210.821 47.776C209.525 46.912 208.505 45.748 207.761 44.284C207.041 42.796 206.681 41.092 206.681 39.172C206.681 37.132 207.089 35.356 207.905 33.844C208.721 32.308 209.849 31.132 211.289 30.316C212.729 29.476 214.373 29.056 216.221 29.056C218.645 29.056 220.637 29.656 222.197 30.856C223.781 32.056 224.801 33.688 225.257 35.752H222.557C222.221 34.336 221.489 33.232 220.361 32.44C219.257 31.624 217.877 31.216 216.221 31.216C214.901 31.216 213.713 31.516 212.657 32.116C211.601 32.716 210.761 33.616 210.137 34.816C209.537 35.992 209.237 37.444 209.237 39.172C209.237 40.9 209.537 42.364 210.137 43.564C210.761 44.764 211.601 45.664 212.657 46.264C213.713 46.864 214.901 47.164 216.221 47.164ZM238.515 49.288C236.667 49.288 234.999 48.88 233.511 48.064C232.047 47.224 230.883 46.048 230.019 44.536C229.179 43 228.759 41.212 228.759 39.172C228.759 37.132 229.191 35.356 230.055 33.844C230.919 32.308 232.095 31.132 233.583 30.316C235.071 29.476 236.739 29.056 238.587 29.056C240.435 29.056 242.103 29.476 243.591 30.316C245.103 31.132 246.279 32.308 247.119 33.844C247.983 35.356 248.415 37.132 248.415 39.172C248.415 41.188 247.983 42.964 247.119 44.5C246.255 46.036 245.067 47.224 243.555 48.064C242.043 48.88 240.363 49.288 238.515 49.288ZM238.515 47.092C239.811 47.092 241.011 46.804 242.115 46.228C243.219 45.628 244.107 44.74 244.779 43.564C245.475 42.364 245.823 40.9 245.823 39.172C245.823 37.444 245.487 35.992 244.815 34.816C244.143 33.616 243.255 32.728 242.151 32.152C241.047 31.552 239.847 31.252 238.551 31.252C237.255 31.252 236.055 31.552 234.951 32.152C233.847 32.728 232.959 33.616 232.287 34.816C231.639 35.992 231.315 37.444 231.315 39.172C231.315 40.9 231.639 42.364 232.287 43.564C232.959 44.74 233.835 45.628 234.915 46.228C236.019 46.804 237.219 47.092 238.515 47.092ZM259.777 49.288C257.521 49.288 255.673 48.772 254.233 47.74C252.817 46.684 252.025 45.256 251.857 43.456H254.449C254.569 44.56 255.085 45.46 255.997 46.156C256.933 46.828 258.181 47.164 259.741 47.164C261.109 47.164 262.177 46.84 262.945 46.192C263.737 45.544 264.133 44.74 264.133 43.78C264.133 43.108 263.917 42.556 263.485 42.124C263.053 41.692 262.501 41.356 261.829 41.116C261.181 40.852 260.293 40.576 259.165 40.288C257.701 39.904 256.513 39.52 255.601 39.136C254.689 38.752 253.909 38.188 253.261 37.444C252.637 36.676 252.325 35.656 252.325 34.384C252.325 33.424 252.613 32.536 253.189 31.72C253.765 30.904 254.581 30.256 255.637 29.776C256.693 29.296 257.893 29.056 259.237 29.056C261.349 29.056 263.053 29.596 264.349 30.676C265.645 31.732 266.341 33.196 266.437 35.068H263.917C263.845 33.916 263.389 32.992 262.549 32.296C261.733 31.576 260.605 31.216 259.165 31.216C257.893 31.216 256.861 31.516 256.069 32.116C255.277 32.716 254.881 33.46 254.881 34.348C254.881 35.116 255.109 35.752 255.565 36.256C256.045 36.736 256.633 37.12 257.329 37.408C258.025 37.672 258.961 37.972 260.137 38.308C261.553 38.692 262.681 39.064 263.521 39.424C264.361 39.784 265.081 40.312 265.681 41.008C266.281 41.704 266.593 42.628 266.617 43.78C266.617 44.836 266.329 45.784 265.753 46.624C265.177 47.44 264.373 48.088 263.341 48.568C262.309 49.048 261.121 49.288 259.777 49.288Z" fill="white"/>
<path d="M56.564 20.496V57H47.672V35.108L39.508 57H32.332L24.116 35.056V57H15.224V20.496H25.728L35.972 45.768L46.112 20.496H56.564ZM102.426 20.496L89.4784 57H78.3504L65.4024 20.496H74.8664L83.9144 48.056L93.0144 20.496H102.426Z" fill="#FF7A00"/>
</svg>
