<svg width="35" height="34" viewBox="0 0 35 34" fill="none" xmlns="http://www.w3.org/2000/svg">
<rect x="0.00732422" width="34" height="34" rx="17" fill="#161616"/>
<path d="M25.0073 13L17.0073 18L9.00732 13V11L17.0073 16L25.0073 11M25.0073 9H9.00732C7.89732 9 7.00732 9.89 7.00732 11V23C7.00732 23.5304 7.21804 24.0391 7.59311 24.4142C7.96818 24.7893 8.47689 25 9.00732 25H25.0073C25.5378 25 26.0465 24.7893 26.4215 24.4142C26.7966 24.0391 27.0073 23.5304 27.0073 23V11C27.0073 10.4696 26.7966 9.96086 26.4215 9.58579C26.0465 9.21071 25.5378 9 25.0073 9Z" fill="#B7B7B7"/>
</svg>
