<svg width="35" height="34" viewBox="0 0 35 34" fill="none" xmlns="http://www.w3.org/2000/svg">
<rect x="0.00732422" width="34" height="34" rx="17" fill="#161616"/>
<path d="M12.8073 7H21.2073C24.4073 7 27.0073 9.6 27.0073 12.8V21.2C27.0073 22.7383 26.3963 24.2135 25.3085 25.3012C24.2208 26.3889 22.7456 27 21.2073 27H12.8073C9.60732 27 7.00732 24.4 7.00732 21.2V12.8C7.00732 11.2617 7.61839 9.78649 8.7061 8.69878C9.79382 7.61107 11.2691 7 12.8073 7ZM12.6073 9C11.6525 9 10.7369 9.37928 10.0617 10.0544C9.38661 10.7295 9.00732 11.6452 9.00732 12.6V21.4C9.00732 23.39 10.6173 25 12.6073 25H21.4073C22.3621 25 23.2778 24.6207 23.9529 23.9456C24.628 23.2705 25.0073 22.3548 25.0073 21.4V12.6C25.0073 10.61 23.3973 9 21.4073 9H12.6073ZM22.2573 10.5C22.5888 10.5 22.9068 10.6317 23.1412 10.8661C23.3756 11.1005 23.5073 11.4185 23.5073 11.75C23.5073 12.0815 23.3756 12.3995 23.1412 12.6339C22.9068 12.8683 22.5888 13 22.2573 13C21.9258 13 21.6079 12.8683 21.3734 12.6339C21.139 12.3995 21.0073 12.0815 21.0073 11.75C21.0073 11.4185 21.139 11.1005 21.3734 10.8661C21.6079 10.6317 21.9258 10.5 22.2573 10.5ZM17.0073 12C18.3334 12 19.6052 12.5268 20.5429 13.4645C21.4805 14.4021 22.0073 15.6739 22.0073 17C22.0073 18.3261 21.4805 19.5979 20.5429 20.5355C19.6052 21.4732 18.3334 22 17.0073 22C15.6812 22 14.4095 21.4732 13.4718 20.5355C12.5341 19.5979 12.0073 18.3261 12.0073 17C12.0073 15.6739 12.5341 14.4021 13.4718 13.4645C14.4095 12.5268 15.6812 12 17.0073 12ZM17.0073 14C16.2117 14 15.4486 14.3161 14.886 14.8787C14.3234 15.4413 14.0073 16.2044 14.0073 17C14.0073 17.7956 14.3234 18.5587 14.886 19.1213C15.4486 19.6839 16.2117 20 17.0073 20C17.803 20 18.566 19.6839 19.1286 19.1213C19.6913 18.5587 20.0073 17.7956 20.0073 17C20.0073 16.2044 19.6913 15.4413 19.1286 14.8787C18.566 14.3161 17.803 14 17.0073 14Z" fill="#B7B7B7"/>
</svg>
