<svg width="21" height="21" viewBox="0 0 21 21" fill="none" xmlns="http://www.w3.org/2000/svg">
<path d="M0.434167 9.9575C0.433699 11.651 0.876199 13.3046 1.7176 14.7621L0.353699 19.7419L5.44995 18.4057C6.8595 19.1731 8.43881 19.5751 10.0437 19.5752H10.0479C15.346 19.5752 19.6587 15.2641 19.661 9.96507C19.662 7.39734 18.6629 4.98281 16.8478 3.16625C15.0329 1.34984 12.6192 0.348981 10.0475 0.347809C4.74886 0.347809 0.436433 4.65875 0.434246 9.9575" fill="url(#paint0_linear_3_52)"/>
<path d="M0.090918 9.95438C0.0903711 11.7088 0.54873 13.4216 1.42014 14.9313L0.00732422 20.0896L5.28631 18.7055C6.74084 19.4985 8.3785 19.9166 10.0449 19.9173H10.0492C15.5373 19.9173 20.005 15.451 20.0073 9.96235C20.0083 7.30234 18.9733 4.80102 17.0933 2.91938C15.213 1.03797 12.713 0.00109375 10.0492 0C4.56014 0 0.0931055 4.46563 0.090918 9.95438ZM3.23467 14.6713L3.03756 14.3584C2.20896 13.0409 1.77162 11.5184 1.77225 9.955C1.77404 5.39289 5.48686 1.68125 10.0523 1.68125C12.2633 1.68219 14.3411 2.54406 15.9039 4.10781C17.4666 5.67172 18.3265 7.75063 18.326 9.96172C18.324 14.5238 14.6111 18.2359 10.0492 18.2359H10.0459C8.56053 18.2352 7.10373 17.8363 5.83326 17.0824L5.53092 16.9031L2.39826 17.7245L3.23467 14.6712V14.6713Z" fill="url(#paint1_linear_3_52)"/>
<path d="M7.56029 5.7928C7.37388 5.3785 7.17771 5.37014 7.00045 5.36288C6.85529 5.35663 6.68935 5.35709 6.52357 5.35709C6.35763 5.35709 6.08802 5.41952 5.86013 5.66834C5.63201 5.91741 4.9892 6.51928 4.9892 7.74342C4.9892 8.96764 5.88084 10.1507 6.00513 10.3169C6.12959 10.4827 7.72646 13.0752 10.2555 14.0726C12.3574 14.9014 12.7851 14.7365 13.2413 14.695C13.6976 14.6536 14.7135 14.0933 14.9208 13.5123C15.1282 12.9313 15.1282 12.4333 15.066 12.3293C15.0038 12.2256 14.8379 12.1633 14.589 12.039C14.3401 11.9145 13.1169 11.3126 12.8888 11.2295C12.6607 11.1465 12.4948 11.1051 12.3289 11.3543C12.1629 11.603 11.6865 12.1633 11.5412 12.3293C11.3961 12.4956 11.2509 12.5163 11.0022 12.3919C10.7532 12.267 9.95185 12.0046 9.00115 11.157C8.26146 10.4975 7.76209 9.68303 7.61693 9.43389C7.47177 9.18514 7.60138 9.0503 7.72615 8.92631C7.83795 8.81483 7.97506 8.63577 8.09959 8.49053C8.22365 8.34522 8.26506 8.24155 8.34802 8.07561C8.43107 7.90952 8.38951 7.7642 8.3274 7.63975C8.26506 7.5153 7.78154 6.28475 7.56029 5.7928Z" fill="white"/>
<defs>
<linearGradient id="paint0_linear_3_52" x1="965.717" y1="1939.76" x2="965.717" y2="0.347809" gradientUnits="userSpaceOnUse">
<stop stop-color="#1FAF38"/>
<stop offset="1" stop-color="#60D669"/>
</linearGradient>
<linearGradient id="paint1_linear_3_52" x1="1000.01" y1="2008.96" x2="1000.01" y2="0" gradientUnits="userSpaceOnUse">
<stop stop-color="#F9F9F9"/>
<stop offset="1" stop-color="white"/>
</linearGradient>
</defs>
</svg>
