<svg width="35" height="34" viewBox="0 0 35 34" fill="none" xmlns="http://www.w3.org/2000/svg">
<rect x="0.00732422" width="34" height="34" rx="17" fill="#161616"/>
<path d="M24.0073 9.91006C23.0905 8.98399 21.9985 8.24973 20.795 7.75011C19.5914 7.25049 18.3004 6.99552 16.9973 7.00006C11.5373 7.00006 7.08732 11.4501 7.08732 16.9101C7.08732 18.6601 7.54732 20.3601 8.40732 21.8601L7.00732 27.0001L12.2573 25.6201C13.7073 26.4101 15.3373 26.8301 16.9973 26.8301C22.4573 26.8301 26.9073 22.3801 26.9073 16.9201C26.9073 14.2701 25.8773 11.7801 24.0073 9.91006ZM16.9973 25.1501C15.5173 25.1501 14.0673 24.7501 12.7973 24.0001L12.4973 23.8201L9.37732 24.6401L10.2073 21.6001L10.0073 21.2901C9.18507 19.977 8.74846 18.4593 8.74732 16.9101C8.74732 12.3701 12.4473 8.67006 16.9873 8.67006C19.1873 8.67006 21.2573 9.53006 22.8073 11.0901C23.5748 11.854 24.183 12.7627 24.5967 13.7635C25.0104 14.7642 25.2214 15.8372 25.2173 16.9201C25.2373 21.4601 21.5373 25.1501 16.9973 25.1501ZM21.5173 18.9901C21.2673 18.8701 20.0473 18.2701 19.8273 18.1801C19.5973 18.1001 19.4373 18.0601 19.2673 18.3001C19.0973 18.5501 18.6273 19.1101 18.4873 19.2701C18.3473 19.4401 18.1973 19.4601 17.9473 19.3301C17.6973 19.2101 16.8973 18.9401 15.9573 18.1001C15.2173 17.4401 14.7273 16.6301 14.5773 16.3801C14.4373 16.1301 14.5573 16.0001 14.6873 15.8701C14.7973 15.7601 14.9373 15.5801 15.0573 15.4401C15.1773 15.3001 15.2273 15.1901 15.3073 15.0301C15.3873 14.8601 15.3473 14.7201 15.2873 14.6001C15.2273 14.4801 14.7273 13.2601 14.5273 12.7601C14.3273 12.2801 14.1173 12.3401 13.9673 12.3301H13.4873C13.3173 12.3301 13.0573 12.3901 12.8273 12.6401C12.6073 12.8901 11.9673 13.4901 11.9673 14.7101C11.9673 15.9301 12.8573 17.1101 12.9773 17.2701C13.0973 17.4401 14.7273 19.9401 17.2073 21.0101C17.7973 21.2701 18.2573 21.4201 18.6173 21.5301C19.2073 21.7201 19.7473 21.6901 20.1773 21.6301C20.6573 21.5601 21.6473 21.0301 21.8473 20.4501C22.0573 19.8701 22.0573 19.3801 21.9873 19.2701C21.9173 19.1601 21.7673 19.1101 21.5173 18.9901Z" fill="#B7B7B7"/>
</svg>
